PathFileType	4	(X/Y/Z)	G:\Shared drives\HIT\Data\HapticPilot\Subject1\Edited\walking_FB1_noFB1.trc
DataRate	CameraRate	NumFrames	NumMarkers	Units	OrigDataRate	OrigDataStartFrame	OrigNumFrames
50.00	50.00	      4	34	mm	50.00	2755	      3148
Frame#	Time	r_knee			r_shank(antsup)			r_ankle			r_calc			r_5meta			r_toe			L_knee			L_shank(ant_sup)			L_ankle			L_calc			L_5meta			L_toe			r_sh2			r_sh3			r_sh4			L_sh2			L_sh3			r_thigh1			r_thigh2			r_thigh3			r_thigh4			r_thigh5			L_thigh1			L_thigh2			L_thigh3			L_thigh4			r.ASIS			r.PSIS			L.ASIS			L.PSIS			C7			R_Shoulder			L_Shoulder			Sternum			
		X1	Y1	Z1	X2	Y2	Z2	X3	Y3	Z3	X4	Y4	Z4	X5	Y5	Z5	X6	Y6	Z6	X7	Y7	Z7	X8	Y8	Z8	X9	Y9	Z9	X10	Y10	Z10	X11	Y11	Z11	X12	Y12	Z12	X13	Y13	Z13	X14	Y14	Z14	X15	Y15	Z15	X16	Y16	Z16	X17	Y17	Z17	X18	Y18	Z18	X19	Y19	Z19	X20	Y20	Z20	X21	Y21	Z21	X22	Y22	Z22	X23	Y23	Z23	X24	Y24	Z24	X25	Y25	Z25	X26	Y26	Z26	X27	Y27	Z27	X28	Y28	Z28	X29	Y29	Z29	X30	Y30	Z30	X31	Y31	Z31	X32	Y32	Z32	X33	Y33	Z33	X34	Y34	Z34	

2755	55.080	843.28162	404.08301	569.93781	850.74731	401.66052	477.48013	751.94611	448.65665	110.66868	665.66827	505.81387	74.38693	857.70782	419.47931	39.45533	902.54187	477.39609	75.35348	1041.90381	712.77686	608.00946	1041.07397	708.25623	485.79855	856.78735	683.17523	184.19806	770.45941	634.31244	179.23740	992.10199	637.74030	94.65591	943.89355	692.99384	68.14349	832.24890	412.03610	359.03036	775.56445	404.19070	486.89648	749.50311	411.79953	373.90533	962.79144	723.26160	529.44739	915.22070	716.89362	416.23459	893.19574	367.18512	897.62433	905.04919	371.50781	783.85101	859.90179	368.90585	745.84216	780.88251	368.40826	881.00055	798.94495	384.19080	766.11346	1002.87195	719.33539	886.15118	1071.80347	717.29553	766.39130	899.91449	743.99072	830.39099	972.73969	732.75970	714.19086	916.17371	412.32156	1094.32605	730.32727	507.36487	1121.63330	926.93854	664.81311	1105.14099	737.00610	589.50885	1118.73474	834.57367	535.74005	1611.83374	896.48322	374.20370	1567.08020	890.47443	722.79913	1570.02917	973.10950	541.94214	1527.88354	
2756	55.100	823.75397	404.88080	570.42395	829.17603	402.21643	478.06128	728.01892	449.27539	111.41628	641.03821	506.07068	75.52229	833.08350	419.36990	39.65565	877.54706	477.58209	74.75999	1042.58154	712.45245	609.16992	1052.43188	708.23633	486.58585	902.98267	680.35358	165.27763	819.83392	627.28345	149.55309	1050.02625	642.88715	92.39301	1002.66455	696.37189	61.07352	809.40637	412.29315	359.89023	754.24146	405.86301	488.45117	727.04236	413.56631	375.84201	968.47504	721.69720	521.42377	934.50092	714.18140	403.60498	885.79907	368.14938	896.48517	893.83881	372.34256	782.51654	847.56934	369.49124	745.85938	772.97577	369.12427	883.43915	786.62128	385.41077	767.63373	1002.66980	717.68140	887.82196	1072.06470	715.22772	768.22559	901.34601	745.57660	832.10016	973.76086	734.81708	715.75757	913.71649	411.66422	1093.56531	729.07556	508.59879	1122.98511	926.39978	664.08136	1105.93372	736.23242	590.66132	1120.25330	834.56122	534.67206	1612.44983	896.42743	373.46643	1567.65051	890.15479	722.00800	1570.89404	973.05420	541.30115	1528.16797	
2757	55.120	804.52228	405.79358	570.90387	807.97095	402.80295	479.00809	704.30609	449.71307	112.34949	616.51831	506.07053	76.96349	808.17743	419.48447	39.55819	853.09711	477.76663	73.91658	1040.27478	711.71161	606.71301	1062.19360	708.25684	486.02576	951.51367	678.11578	148.01738	873.21832	621.50195	121.96181	1107.69434	648.65765	93.38201	1061.70935	700.16479	57.04198	786.94830	412.71320	360.92728	733.17383	407.35379	490.10059	704.54950	414.67502	377.55582	973.63135	720.23993	510.70407	953.92035	711.78680	389.45135	878.59595	369.04929	895.21802	883.12256	373.14804	781.15424	835.71814	369.13074	746.27649	765.41150	369.71915	885.68646	775.25757	385.41235	769.68268	1000.99542	716.34711	886.24609	1069.72986	713.62640	766.41882	899.98755	747.25482	832.17700	971.39996	734.22076	714.58228	911.58209	411.46259	1092.09460	727.99860	510.05893	1123.12073	926.16522	663.68738	1105.27014	735.39655	592.38208	1120.24536	834.97986	533.83496	1611.84412	896.84131	373.04111	1567.10376	890.18250	721.50494	1570.73364	973.36957	540.93726	1527.40356	
2758	55.140	785.11536	406.63498	571.41266	786.34436	403.35883	479.90997	680.46948	449.96860	113.64627	592.14362	506.09195	78.50329	783.12848	419.36301	39.59355	828.57648	477.61383	73.44568	1034.39465	709.81329	601.31891	1068.18884	707.38721	484.56003	1001.57745	677.35327	133.84364	930.13062	617.20245	98.58603	1165.39417	655.21710	99.26600	1121.17676	704.17859	57.16900	764.29016	412.92117	362.14972	711.81964	408.52972	491.91510	682.18597	415.70337	379.52133	977.36279	717.91174	499.02136	972.63269	709.62592	375.45822	872.13733	370.16699	893.69946	872.81006	374.21075	779.49493	824.34320	370.26779	746.07404	758.75159	370.30951	887.78076	764.85822	385.78671	771.80249	997.70129	715.61127	881.42047	1064.64111	712.18231	760.28394	896.32288	746.56116	828.48859	966.52478	732.23169	709.98914	909.89410	411.63724	1090.27722	727.13550	512.10864	1122.01904	926.28430	663.83179	1102.85706	735.25482	593.84558	1119.00134	835.69519	533.46252	1610.18262	897.54224	372.87314	1565.22620	890.48602	721.42035	1569.50122	973.87738	540.86932	1525.52539	
